<svg width="160" height="149" viewBox="0 0 160 149" fill="none" xmlns="http://www.w3.org/2000/svg">
<path d="M108.438 34.5C105.296 34.5 102.75 31.9538 102.75 28.8125C102.75 25.6712 105.296 23.125 108.438 23.125C111.573 23.125 114.125 20.5734 114.125 17.4375C114.125 14.3016 111.573 11.75 108.438 11.75C105.296 11.75 102.75 9.20378 102.75 6.0625C102.75 2.92122 105.296 0.375 108.438 0.375C117.846 0.375 125.5 8.02895 125.5 17.4375C125.5 26.846 117.846 34.5 108.438 34.5Z" fill="#463C4B"/>
<path d="M40.1875 34.5C37.0462 34.5 34.5 31.9538 34.5 28.8125C34.5 25.6712 37.0462 23.125 40.1875 23.125C43.3234 23.125 45.875 20.5734 45.875 17.4375C45.875 14.3016 43.3234 11.75 40.1875 11.75C37.0462 11.75 34.5 9.20378 34.5 6.0625C34.5 2.92122 37.0462 0.375 40.1875 0.375C49.596 0.375 57.25 8.02895 57.25 17.4375C57.25 26.846 49.596 34.5 40.1875 34.5Z" fill="#463C4B"/>
<path d="M148.25 148.25H11.75C5.4678 148.25 0.375 143.157 0.375 136.875V40.1875H159.625V136.875C159.625 143.157 154.532 148.25 148.25 148.25Z" fill="#A5C3DC"/>
<path d="M131.188 148.25H11.75C5.4678 148.25 0.375 143.157 0.375 136.875V40.1875H142.562V136.875C142.562 143.157 137.47 148.25 131.188 148.25Z" fill="#D7E6F0"/>
<path d="M148.25 17.4375H11.75C5.4678 17.4375 0.375 22.5303 0.375 28.8125V40.1875H159.625V28.8125C159.625 22.5303 154.532 17.4375 148.25 17.4375Z" fill="#4182C3"/>
<path d="M131.188 17.4375H11.75C5.4678 17.4375 0.375 22.5303 0.375 28.8125V40.1875H142.562V28.8125C142.562 22.5303 137.47 17.4375 131.188 17.4375Z" fill="#64AFE1"/>
<path d="M40.1875 34.5C30.779 34.5 23.125 26.846 23.125 17.4375C23.125 8.02895 30.779 0.375 40.1875 0.375C43.3288 0.375 45.875 2.92122 45.875 6.0625C45.875 9.20378 43.3288 11.75 40.1875 11.75C37.0516 11.75 34.5 14.3016 34.5 17.4375C34.5 20.5734 37.0516 23.125 40.1875 23.125C43.3288 23.125 45.875 25.6712 45.875 28.8125C45.875 31.9538 43.3288 34.5 40.1875 34.5Z" fill="#555A6E"/>
<path d="M108.438 34.5C99.029 34.5 91.375 26.846 91.375 17.4375C91.375 8.02895 99.029 0.375 108.438 0.375C111.579 0.375 114.125 2.92122 114.125 6.0625C114.125 9.20378 111.579 11.75 108.438 11.75C105.302 11.75 102.75 14.3016 102.75 17.4375C102.75 20.5734 105.302 23.125 108.438 23.125C111.579 23.125 114.125 25.6712 114.125 28.8125C114.125 31.9538 111.579 34.5 108.438 34.5Z" fill="#555A6E"/>
<path d="M31.6562 68.625H20.2812C18.7108 68.625 17.4375 67.3517 17.4375 65.7812V54.4062C17.4375 52.8358 18.7108 51.5625 20.2812 51.5625H31.6562C33.2267 51.5625 34.5 52.8358 34.5 54.4062V65.7812C34.5 67.3517 33.2267 68.625 31.6562 68.625Z" fill="#3769D2"/>
<path d="M54.4062 68.625H43.0312C41.4608 68.625 40.1875 67.3517 40.1875 65.7812V54.4062C40.1875 52.8358 41.4608 51.5625 43.0312 51.5625H54.4062C55.9767 51.5625 57.25 52.8358 57.25 54.4062V65.7812C57.25 67.3517 55.9767 68.625 54.4062 68.625Z" fill="#A5C3DC"/>
<path d="M77.1562 68.625H65.7812C64.2108 68.625 62.9375 67.3517 62.9375 65.7812V54.4062C62.9375 52.8358 64.2108 51.5625 65.7812 51.5625H77.1562C78.7267 51.5625 80 52.8358 80 54.4062V65.7812C80 67.3517 78.7267 68.625 77.1562 68.625Z" fill="#A5C3DC"/>
<path d="M99.9062 68.625H88.5312C86.9608 68.625 85.6875 67.3517 85.6875 65.7812V54.4062C85.6875 52.8358 86.9608 51.5625 88.5312 51.5625H99.9062C101.477 51.5625 102.75 52.8358 102.75 54.4062V65.7812C102.75 67.3517 101.477 68.625 99.9062 68.625Z" fill="#A5C3DC"/>
<path d="M122.656 68.625H111.281C109.711 68.625 108.438 67.3517 108.438 65.7812V54.4062C108.438 52.8358 109.711 51.5625 111.281 51.5625H122.656C124.227 51.5625 125.5 52.8358 125.5 54.4062V65.7812C125.5 67.3517 124.227 68.625 122.656 68.625Z" fill="#A5C3DC"/>
<path d="M31.6562 91.375H20.2812C18.7108 91.375 17.4375 90.1017 17.4375 88.5312V77.1562C17.4375 75.5858 18.7108 74.3125 20.2812 74.3125H31.6562C33.2267 74.3125 34.5 75.5858 34.5 77.1562V88.5312C34.5 90.1017 33.2267 91.375 31.6562 91.375Z" fill="#3769D2"/>
<path d="M54.4062 91.375H43.0312C41.4608 91.375 40.1875 90.1017 40.1875 88.5312V77.1562C40.1875 75.5858 41.4608 74.3125 43.0312 74.3125H54.4062C55.9767 74.3125 57.25 75.5858 57.25 77.1562V88.5312C57.25 90.1017 55.9767 91.375 54.4062 91.375Z" fill="#A5C3DC"/>
<path d="M77.1562 91.375H65.7812C64.2108 91.375 62.9375 90.1017 62.9375 88.5312V77.1562C62.9375 75.5858 64.2108 74.3125 65.7812 74.3125H77.1562C78.7267 74.3125 80 75.5858 80 77.1562V88.5312C80 90.1017 78.7267 91.375 77.1562 91.375Z" fill="#A5C3DC"/>
<path d="M99.9062 91.375H88.5312C86.9608 91.375 85.6875 90.1017 85.6875 88.5312V77.1562C85.6875 75.5858 86.9608 74.3125 88.5312 74.3125H99.9062C101.477 74.3125 102.75 75.5858 102.75 77.1562V88.5312C102.75 90.1017 101.477 91.375 99.9062 91.375Z" fill="#A5C3DC"/>
<path d="M122.656 91.375H111.281C109.711 91.375 108.438 90.1017 108.438 88.5312V77.1562C108.438 75.5858 109.711 74.3125 111.281 74.3125H122.656C124.227 74.3125 125.5 75.5858 125.5 77.1562V88.5312C125.5 90.1017 124.227 91.375 122.656 91.375Z" fill="#A5C3DC"/>
<path d="M31.6562 114.125H20.2812C18.7108 114.125 17.4375 112.852 17.4375 111.281V99.9062C17.4375 98.3358 18.7108 97.0625 20.2812 97.0625H31.6562C33.2267 97.0625 34.5 98.3358 34.5 99.9062V111.281C34.5 112.852 33.2267 114.125 31.6562 114.125Z" fill="#3769D2"/>
<path d="M54.4062 114.125H43.0312C41.4608 114.125 40.1875 112.852 40.1875 111.281V99.9062C40.1875 98.3358 41.4608 97.0625 43.0312 97.0625H54.4062C55.9767 97.0625 57.25 98.3358 57.25 99.9062V111.281C57.25 112.852 55.9767 114.125 54.4062 114.125Z" fill="#A5C3DC"/>
<path d="M77.1562 114.125H65.7812C64.2108 114.125 62.9375 112.852 62.9375 111.281V99.9062C62.9375 98.3358 64.2108 97.0625 65.7812 97.0625H77.1562C78.7267 97.0625 80 98.3358 80 99.9062V111.281C80 112.852 78.7267 114.125 77.1562 114.125Z" fill="#A5C3DC"/>
<path d="M99.9062 114.125H88.5312C86.9608 114.125 85.6875 112.852 85.6875 111.281V99.9062C85.6875 98.3358 86.9608 97.0625 88.5312 97.0625H99.9062C101.477 97.0625 102.75 98.3358 102.75 99.9062V111.281C102.75 112.852 101.477 114.125 99.9062 114.125Z" fill="#A5C3DC"/>
<path d="M122.656 114.125H111.281C109.711 114.125 108.438 112.852 108.438 111.281V99.9062C108.438 98.3358 109.711 97.0625 111.281 97.0625H122.656C124.227 97.0625 125.5 98.3358 125.5 99.9062V111.281C125.5 112.852 124.227 114.125 122.656 114.125Z" fill="#A5C3DC"/>
<path d="M31.6562 136.875H20.2812C18.7108 136.875 17.4375 135.602 17.4375 134.031V122.656C17.4375 121.086 18.7108 119.812 20.2812 119.812H31.6562C33.2267 119.812 34.5 121.086 34.5 122.656V134.031C34.5 135.602 33.2267 136.875 31.6562 136.875Z" fill="#3769D2"/>
<path d="M54.4062 136.875H43.0312C41.4608 136.875 40.1875 135.602 40.1875 134.031V122.656C40.1875 121.086 41.4608 119.812 43.0312 119.812H54.4062C55.9767 119.812 57.25 121.086 57.25 122.656V134.031C57.25 135.602 55.9767 136.875 54.4062 136.875Z" fill="#A5C3DC"/>
<path d="M77.1562 136.875H65.7812C64.2108 136.875 62.9375 135.602 62.9375 134.031V122.656C62.9375 121.086 64.2108 119.812 65.7812 119.812H77.1562C78.7267 119.812 80 121.086 80 122.656V134.031C80 135.602 78.7267 136.875 77.1562 136.875Z" fill="#A5C3DC"/>
<path d="M99.9062 136.875H88.5312C86.9608 136.875 85.6875 135.602 85.6875 134.031V122.656C85.6875 121.086 86.9608 119.812 88.5312 119.812H99.9062C101.477 119.812 102.75 121.086 102.75 122.656V134.031C102.75 135.602 101.477 136.875 99.9062 136.875Z" fill="#A5C3DC"/>
<path d="M122.656 136.875H111.281C109.711 136.875 108.438 135.602 108.438 134.031V122.656C108.438 121.086 109.711 119.812 111.281 119.812H122.656C124.227 119.812 125.5 121.086 125.5 122.656V134.031C125.5 135.602 124.227 136.875 122.656 136.875Z" fill="#A5C3DC"/>
</svg>
